<?xml version="1.0" encoding="utf-8"?>
<!-- Generator: Adobe Illustrator 21.1.0, SVG Export Plug-In . SVG Version: 6.00 Build 0)  -->
<svg version="1.1" id="Layer_2" xmlns="http://www.w3.org/2000/svg" xmlns:xlink="http://www.w3.org/1999/xlink" x="0px" y="0px"
	 viewBox="0 0 50 50" style="enable-background:new 0 0 50 50;" xml:space="preserve">
<style type="text/css">
	.st0{stroke:#FFFFFF;stroke-width:2;stroke-miterlimit:10;}
</style>
<path class="st0" d="M30.8,25L47.6,8.2c1.6-1.6,1.6-4.2,0-5.8l0,0c-1.6-1.6-4.2-1.6-5.8,0L25,19.2L8.2,2.4C6.6,0.9,4,0.9,2.4,2.4
	l0,0C0.9,4,0.9,6.6,2.4,8.2L19.2,25L2.4,41.8c-1.6,1.6-1.6,4.2,0,5.8l0,0c1.6,1.6,4.2,1.6,5.8,0L25,30.8l16.8,16.8
	c1.6,1.6,4.2,1.6,5.8,0l0,0c1.6-1.6,1.6-4.2,0-5.8L30.8,25z"/>
</svg>
