<?xml version="1.0" encoding="utf-8"?>
<!-- Generator: Adobe Illustrator 21.1.0, SVG Export Plug-In . SVG Version: 6.00 Build 0)  -->
<svg version="1.1" id="Layer_2" xmlns="http://www.w3.org/2000/svg" xmlns:xlink="http://www.w3.org/1999/xlink" x="0px" y="0px"
	 viewBox="0 0 32 32" style="enable-background:new 0 0 32 32;" xml:space="preserve">
<style type="text/css">
	.st0{fill:#0B0935;}
</style>
<title>name</title>
<title>name</title>
<g>
	<path class="st0" d="M17.8,15.7c6.3-0.3,5.9-3.7,9.5-3.2c4.1,0.6,3.6,6.1,0,7.9c-1.4,0.6-3.7,0.8-4-1c0-0.6,0-1.5,1.5-1
		c-0.4,0-1,0-0.8,1c0.3,1,3.3,0.4,3.6-2.2c0.3-3.7-2.4-1-5.8-0.8C20,16.7,16.8,15.6,17.8,15.7z"/>
	<path class="st0" d="M19.7,17.4c0.8,0,1.8,1,2.4,1.4c0.6,0.6-5.5,13-6.3,13s-2.8-0.4-3.3-1l0.6,0.3C13.8,31.2,20.1,18.3,19.7,17.4z
		"/>
	<path class="st0" d="M11,28.4c0.3,1.4-1.9,0.4-2.8-1c-0.8-1.2-2.4-4.3-1-6.3c1.9-2.8,5.4-0.8,5.9-0.3v-1.5c-1-1.4-1.8-1.8-2.7-7.7
		c-0.8-7.3,1.8-8.4,4.3-7.7c4,1.2,5.4,7.2,5.4,7.5s0.3,4,1-0.3c0.8-4.1-1.9-8.7-6.3-10.2C12.6,0.1,6.3-1.4,4.1,4.1
		c-2.6,6.3,3.7,12.8,3.2,13.4c-0.6,0.4-5,2-4.2,6.8s5.5,6.9,7.7,7.3s1.5-3.2,1.5-3.7l-2.4-2.6C10,25.2,10.6,26.2,11,28.4z"/>
</g>
</svg>
