<?xml version="1.0" encoding="utf-8"?>
<!-- Generator: Adobe Illustrator 21.1.0, SVG Export Plug-In . SVG Version: 6.00 Build 0)  -->
<svg version="1.1" id="Layer_1" xmlns="http://www.w3.org/2000/svg" xmlns:xlink="http://www.w3.org/1999/xlink" x="0px" y="0px"
	 viewBox="0 0 50 50" style="enable-background:new 0 0 50 50;" xml:space="preserve">
<style type="text/css">
	.st0{fill:#FFFFFF;}
</style>
<title>test</title>
<path class="st0" d="M50,12.5V0L37.5,0c0,6.9-6.2,12.5-12.5,12.5c-6.9,0-12.5-5.6-12.5-12.5H0v12.5c6.9,0,12.5,5.6,12.5,12.5
	c0,6.3-5.6,12.5-12.5,12.5L0,50h12.5c0-6.9,5.6-12.5,12.5-12.5c6.3,0,12.5,5.5,12.5,12.5L50,50l0-12.5c-6.9,0-12.5-6.2-12.5-12.5
	C37.5,18.1,43.1,12.5,50,12.5z"/>
</svg>
