<svg id="Layer_1" data-name="Layer 1" xmlns="http://www.w3.org/2000/svg" viewBox="0 0 157.03 5.8"><title>ink-banner</title>
	<path d="M85.6,59.25a1.35,1.35,0,0,0-.29,0L84,59.31c-.06.18-.47.12-.37.47l.23.12c.51-.11.94-.47,1.54-.32l.11-.22.2.2c.4,0,.81-.13,1.23-.11.62,0,1.23,0,1.85,0a2.36,2.36,0,0,0,.33-.05l.11.15a4.12,4.12,0,0,0,1.35-.11s0,0,0-.1l-.32-.24h-1s-.09.06-.14.08h0a1,1,0,0,0-.82,0,1.92,1.92,0,0,0-.84-.07c-.29,0-.59,0-.88,0h-.86Zm-3.5.21a2,2,0,0,0-.86-.08,8.26,8.26,0,0,0-.84,0c-.26,0-.52.06-.79.09l0-.25L79,59.11l-.15.31c.22.11.44.2.64.32a.61.61,0,0,0,.57.06c.19-.1.36,0,.52-.07l.17.28a17,17,0,0,1,1.86-.1H83a.8.8,0,0,1,.36-.38c0-.07,0-.13,0-.18s0,0,0,0A2.56,2.56,0,0,0,82.09,59.46Zm13.1,0H94c-.09,0-.21,0-.26,0s-.34,0-.5-.08a4.28,4.28,0,0,0-.54-.09c-.25,0-.5,0-.74,0-.13.19-.42.21-.49.48a1.71,1.71,0,0,0,.82.22,4.23,4.23,0,0,0,1.37-.08,10,10,0,0,0,1.5-.1l.1-.11Zm17.06-.17a.21.21,0,0,0,.32.12c.16-.13.35,0,.52-.15s.36,0,.55,0c0-.26-.2-.23-.31-.37l-.53.09-.11-.09C112.47,59,112.45,59.23,112.26,59.29Zm8.73.22a2.06,2.06,0,0,1,.73,0c.23.1.44,0,.71.09l-.15-.34L121,59.15Zm-7.23-.62,0,.09a.68.68,0,0,0,.37.18c.36,0,.69-.16,1-.11a.69.69,0,0,0-.19-.14l-.12,0Zm3.51,0h-.78v.22h.66Zm1.95.2V59a1.19,1.19,0,0,0-.46,0c-.15.06-.27.1-.4,0l-.16.17A5.42,5.42,0,0,0,119.22,59.12ZM116,59.07l-.26-.28a1.27,1.27,0,0,0-.29.28Zm-37.73,0c.13,0,.13,0,.12-.19Z" transform="translate(-74.95 -54.91)"/>
	<path d="M105.5,60l0,.17c-.19,0-.16-.16-.16-.29l.82-.13L106,60Z" transform="translate(-74.95 -54.91)"/>
	<path d="M100.08,60.46v.15h-.6v-.15Z" transform="translate(-74.95 -54.91)"/>
	<path d="M102.29,60.38v.14h-.61A.61.61,0,0,1,102.29,60.38Z" transform="translate(-74.95 -54.91)"/>
	<path d="M97.47,60.53v-.09h0v.09Z" transform="translate(-74.95 -54.91)"/>
	<path d="M98.14,60.47h.09v0h-.09Z" transform="translate(-74.95 -54.91)"/>
	<path d="M232,54.91v5.47a15.16,15.16,0,0,1-2.16-.34,9.26,9.26,0,0,1-1.6-.16c-.54,0-1.76,0-1.92,0-.69-.05-1.38-.07-2.07-.11s-1.36.08-2,0a5.68,5.68,0,0,1-1.16,0c-.38,0-.75,0-1.11,0a7.15,7.15,0,0,1-.85,0l-.59.06c-.19,0-.4-.09-.59.06,0,0-.09,0-.13,0-.37,0-.74,0-1.11,0s-.76,0-1.15-.05a6.91,6.91,0,0,0-1.24,0c-.28,0-.54,0-.81,0a2.91,2.91,0,0,1-.72,0c-.24,0-.47.13-.72.05-.46.14-.74.14-1.21.26a1.81,1.81,0,0,1-.39-.06,4.15,4.15,0,0,0-1.11.06,4.07,4.07,0,0,0-.85,0c-.28.08-.55,0-.81,0a5.88,5.88,0,0,1-1.51,0,8.75,8.75,0,0,1-1.41-.24c-.41-.07-.84.09-1.24,0s-.51.07-.79,0-.54,0-.81-.06-.81.08-1.12,0-.6.05-1,0-.69.05-1,0a7.51,7.51,0,0,1-1.15,0c-.51-.15-1,.09-1.56.05a11.93,11.93,0,0,0-1.59-.18,14.68,14.68,0,0,0-2.27-.22l-1-.08c-.69,0-1.38,0-2.07,0s-1.35.15-2,.09c-.38.14-.9-.1-1.28,0s-.77,0-1.12,0a5.56,5.56,0,0,1-.75.06c-.19,0-.36,0-.55,0s-.41-.07-.58.09c0,0-.09,0-.13,0-.37,0-.74.07-1.11.08s-.77,0-1.15,0a6,6,0,0,0-1.15.11c-.27.06-.59,0-.85.08a3.36,3.36,0,0,1-.77.06,5.07,5.07,0,0,1-.81-.12c-.45.16-.64-.08-1.1.06a1.56,1.56,0,0,1-.36,0,4.15,4.15,0,0,0-1.11.11,4.07,4.07,0,0,0-.84.09c-.28.1-.55,0-.81.08a5.88,5.88,0,0,1-1.51.08,8.75,8.75,0,0,1-1.42-.17c-.42-.05-.84,0-1.24-.09s-.57-.08-.86-.15-.63,0-.91,0-.7,0-1-.09a6.91,6.91,0,0,0-1.16-.07c-.31,0-.62-.07-.93-.08a5.28,5.28,0,0,1-1,0A6.93,6.93,0,0,0,161,59.8a11.93,11.93,0,0,0-1.6-.09,9.76,9.76,0,0,0-1.85-.11l-.05-.14a5.56,5.56,0,0,1,.64,0l.13-.2s-.07-.06-.09-.06a2.74,2.74,0,0,1-.62,0c-.5-.13-.78.47-1.28.4a6.62,6.62,0,0,0-.94-.08,3.14,3.14,0,0,0-.48,0c-.13,0-.25.12-.38.14s-.49,0-.74,0l-.16.16H153c-1,0-2.07,0-3.1.11-.67.07-1.33,0-2,.07a5.56,5.56,0,0,0-.6.1l-.19-.19a1.62,1.62,0,0,0-.82.21c-.25.08-.48-.3-.74-.29a5.3,5.3,0,0,0-.54.08,1.41,1.41,0,0,0-.5.08,1.23,1.23,0,0,1-.5,0l-.14.14a1.57,1.57,0,0,0-.89,0,.34.34,0,0,1-.16,0,3,3,0,0,0-1,.11,7.58,7.58,0,0,0-.76.08c-.42.11-.91-.35-1.31-.17a1.29,1.29,0,0,1-.48,0h-.49a1.15,1.15,0,0,0-.4.1,1.27,1.27,0,0,1-.59.07c-.19,0-.34-.19-.52-.15s-.35-.07-.5.08-.08,0-.13,0c-.65,0-1.29.15-2,.09-.34,0-.68,0-1,0a.76.76,0,0,0-.55.19c-.27-.17-.59-.06-.89-.11l0-.15.44,0,0-.12s-.05,0-.08,0c-1.08,0-2.17.22-3.24.13-.55,0-1.1,0-1.64-.08-.33,0-.67,0-1-.09a9.14,9.14,0,0,0-1.73-.07.84.84,0,0,0-.54.07c-.08.05-.24,0-.37,0l-.29-.06,0,.07-.7.37.11-.29-.3-.32c-.54.09-1.06-.13-1.6-.08a1.9,1.9,0,0,0-.89-.09,1,1,0,0,0-.54.08c-.14.08-.35-.07-.49.09s-.08,0-.13,0a15.53,15.53,0,0,1-2,0c-.76-.1-1.51,0-2.26-.06-.24,0-.48.06-.71.08a2.47,2.47,0,0,0-.7,0c-.33.13-.68,0-1,.16,0,0-.11,0-.19,0V59.8c-.22-.07-.38.1-.59.14l-.08-.07c-.13,0-.24.18-.41,0l.12-.18.93-.13c.11-.07.17-.25.37-.26v-.4s0,0-.06,0a9.56,9.56,0,0,0-1.42.11,6.76,6.76,0,0,1-.68.06c-.38.11-.53.5-.91.45a1.54,1.54,0,0,1-1,.17v.26h.58l.19-.17a.91.91,0,0,0,.57.06c.34,0,.62-.28,1-.22l.15.24a2,2,0,0,1-.84.11,5.78,5.78,0,0,0-.63.08,3.45,3.45,0,0,0-.59.07,6.19,6.19,0,0,1-.66.11l-.4.08,0-.22c.36-.11.33-.5.62-.74-.27,0-.45-.05-.63,0a.25.25,0,0,1-.16,0c-.27-.06-.73-.38-1-.39a6.48,6.48,0,0,0-.72.16,11.36,11.36,0,0,0-1.16.18c-.44.07-.9,0-1.33.11s-1.11,0-1.64.09a12.14,12.14,0,0,1-1.86.07c-.63,0-1.27,0-1.9,0a.67.67,0,0,0-.41.08c-.06,0-.2,0-.31-.08a3.25,3.25,0,0,0-1-.09l-.26.26c-.08.08-.23.14-.25.22s0,.25-.2.31l-.13-.1c-.26,0-.42.26-.6.44-.27,0-.55,0-.83,0a3.63,3.63,0,0,0-.58-.09.83.83,0,0,1-.58-.08s-.06,0-.09,0a6.91,6.91,0,0,1-1.64-.11c-.58-.07-1.16-.05-1.73-.07s-1.15,0-1.72,0c-.32,0-.65,0-1,0-.55,0-1.09.16-1.64.09-.28.18-.6.07-.9.16s-.65,0-1,0a4.2,4.2,0,0,1-.81.07l-.21,0,.88-.26v-.1s0,0-.07,0c-.52,0-1,0-1.54,0s-.76.27-1.31.26-.74.18-1.22,0c-.17-.06-2-.07-2.35-.12s-1.21-.05-1.7-.05V54.91Z" transform="translate(-74.95 -54.91)"/>
</svg>