<svg id="svg-name" xmlns="http://www.w3.org/2000/svg" xmlns:xlink="http://www.w3.org/1999/xlink" x="0px" y="0px" viewBox="0 0 330 105"><path class="svg-path" d="M53,22l5.8-2.4c1-1,7.3-9.6,1.3-11.6S42,8,33,19s-1,18,0,20S10,53,8,70s14,21,21,22c13.2,1.8,26-6,30-18 s-1.3-3-2-2c-0.6,0.8-13,17-25,14s-14-14-1-31s14-14,19-16l2-3c-2,1-13,3-14-7s7-16,11-18s13,0,9,5S53,22,53,22z"/><path class="svg-path" d="M132.2,44.6c4.5,3.5,5.8,7.4,5.8,8.4s-6,6-16,13s-8,3-4,0s16-11,16-13s-5.2-7.4-16-3c-6.2,2.5-7,9-5,16 s11,12,18,8c2.7-1.1,4.9-3.3,6-6c1-2,4-5,4-4s-3,13-14,15s-21.3-1.2-23-15c-1.7-14.3,7-18,11-20S128.4,41.6,132.2,44.6z"/><path class="svg-path" d="M88,19c1-1,4-5,8,1s-4,50-3,53s1,3,2,2s-4,5-7,2s-2-11-1-16s4-41,3-42S87,20,88,19z"/><path class="svg-path" d="M69,19c1-1,4-5,8,1s-4,50-3,53s1,3,2,2s-4,5-7,2s-2-11-1-16s4-41,3-42S68,20,69,19z"/><g><path class="svg-path" d="M159,23c7-1,18-11,35-8s16,30,2,33s-14,2-16,1s19-4,18-17s-14-11-31-7C162,25,155,23,159,23z"/><path class="svg-path" d="M171,24c1-1,6,2,7,3s0,50-1,51s-7,1-8,0h1C171,77,172,27,171,24z"/></g><path class="svg-path" d="M236,56c-4-13-13-15-21-13s-16,11-14,24s17.1,12.6,24,11C232,76.3,240,68,236,56z M226.7,71.8 C221.3,74.3,212,71,211,63s2-16,9-17s9.7,1.1,13,13C235.5,67.9,230.7,70,226.7,71.8z"/><g><path class="svg-path" d="M238,48c8,0,14-5,26-5s16,8,16,17s-2,16-9,17s-14,2-15,1s16,1,15-18s-8-13-25-10C242,50,237,50,238,48z"/><path class="svg-path" d="M246,52c2-1,6,1,7,2s0,43-1,45s-6.7,4.8-8.9,4.8c-1.9,0-2.3,0.8,0.9-2.8C244.9,99.9,247,55,246,52z"/></g><path class="svg-path" d="M314.2,44.4c4.5,3.5,5.8,7.4,5.8,8.4s-6,6-16,13s-8,3-4,0c4-3,16-11,16-13s-5.2-7.4-16-3c-6.2,2.5-7,9-5,16 s11,12,18,8c2.7-1.1,4.9-3.3,6-6c1-2,4-5,4-4c0,1-3,13-14,15s-21.3-1.2-23-15c-1.7-14.3,7-18,11-20S310.3,41.3,314.2,44.4z"/></svg>
