<svg id="Layer_2" data-name="Layer 2" xmlns="http://www.w3.org/2000/svg" width="153.34" height="180.49" viewBox="0 0 153.34 180.49">
  <defs>
    <style>
      .cls-1 {
        fill: #471ca5;
      }
    </style>
  </defs>
  <title>resume-icon</title>
  <g>
    <g>
      <path class="cls-1" d="M104.6,95.2C140,93.5,137.8,74.2,158,77c23,3.4,20.2,34.6,0,44.8-7.9,3.4-20.8,4.5-22.5-5.7,0-3.4,0-8.5,8.4-5.7-2.2,0-5.6,0-4.5,5.7,1.7,5.7,18.5,2.3,20.2-12.5,1.7-21-13.5-5.7-32.6-4.5C117,100.9,99,94.6,104.6,95.2Z" transform="translate(-21.32 -6.23)"/>
      <path class="cls-1" d="M104.6,94.5a87.45,87.45,0,0,0,8.8-.9,68.21,68.21,0,0,0,8.7-2,45,45,0,0,0,8.1-3.5,59.23,59.23,0,0,0,7.4-4.9,49.89,49.89,0,0,1,7.6-5,17.61,17.61,0,0,1,4.4-1.5,17.91,17.91,0,0,1,4.6-.4,27.61,27.61,0,0,1,9,1.7,23.22,23.22,0,0,1,4.1,2.2,16.68,16.68,0,0,1,3.3,3.2,19.89,19.89,0,0,1,3.7,8.4,25.3,25.3,0,0,1-.1,9.1,31.31,31.31,0,0,1-8.5,15.9,30.61,30.61,0,0,1-7.4,5.4,33.79,33.79,0,0,1-8.8,2.4,23.56,23.56,0,0,1-4.6,0,9.26,9.26,0,0,1-2.3-.4,9.75,9.75,0,0,1-2.2-.8,8.18,8.18,0,0,1-2-1.2,6.47,6.47,0,0,1-.9-.8l-.4-.4-.3-.5a9.5,9.5,0,0,1-1.7-4.3h0a13.43,13.43,0,0,1,.3-3.4,4.09,4.09,0,0,1,1.9-2.9,5.81,5.81,0,0,1,3.4-.5,10.1,10.1,0,0,1,1.7.3,9.83,9.83,0,0,1,1.6.5l2,.6h-2.1a8.2,8.2,0,0,0-2.2.2,2.7,2.7,0,0,0-1.7,1,4.27,4.27,0,0,0-.6,2,18,18,0,0,0,.2,2.2h0a3.78,3.78,0,0,0,3.2,2.3,10.46,10.46,0,0,0,4.3-.3,15.93,15.93,0,0,0,7.5-4.4,17.49,17.49,0,0,0,4.3-7.6,21.77,21.77,0,0,0,.3-8.8A4.81,4.81,0,0,0,153,93a52,52,0,0,0-8.6,2.3c-5.6,1.9-11.4,3.6-17.4,4h0a33.2,33.2,0,0,1-6.3.2,45.23,45.23,0,0,1-6.3-.8c-2.1-.4-4.1-.9-6.2-1.4-1-.3-2-.6-3-1-.5-.2-1-.4-1.4-.6-.1-.1-.2-.1-.3-.2s0-.1.1-.2h1Zm4.5,1.1-4.5-.4h-.8c-.1,0-.3,0-.2.2s.2.2.3.2a14.67,14.67,0,0,0,1.4.6,17.1,17.1,0,0,0,3,.9,62.06,62.06,0,0,0,6.2,1.4c2.1.4,4.2.6,6.3.8a33.2,33.2,0,0,0,6.3-.2h0A64.2,64.2,0,0,0,144.4,95a49.74,49.74,0,0,1,8.6-2.4,6.68,6.68,0,0,1,4.4.7,6,6,0,0,1,2.2,3.9,22.71,22.71,0,0,1,.3,4.5,23.16,23.16,0,0,1-.6,4.5A16.7,16.7,0,0,1,155,114a15.93,15.93,0,0,1-7.7,4.5,11.44,11.44,0,0,1-4.5.3,4.53,4.53,0,0,1-2.2-.8,3.58,3.58,0,0,1-1.5-1.9h0a9,9,0,0,1-.2-2.3,4.65,4.65,0,0,1,.6-2.3,3.69,3.69,0,0,1,2-1.3,9.34,9.34,0,0,1,2.3-.2l-.1.6a14.24,14.24,0,0,1-1.6-.5,9,9,0,0,0-1.6-.3,5,5,0,0,0-3,.4,3.38,3.38,0,0,0-1.6,2.5,16.68,16.68,0,0,0-.2,3.2v-.1a8.37,8.37,0,0,0,5,6.6,12.93,12.93,0,0,0,2.1.7,14.6,14.6,0,0,0,2.2.3,16.22,16.22,0,0,0,4.4-.1,31.5,31.5,0,0,0,8.5-2.3,30.17,30.17,0,0,0,7.1-5.2,29.74,29.74,0,0,0,8.2-15.4,23.68,23.68,0,0,0,.1-8.8,18.28,18.28,0,0,0-3.5-7.9,17.55,17.55,0,0,0-3.1-3,20.26,20.26,0,0,0-3.8-2.1,23,23,0,0,0-8.6-1.6,20.24,20.24,0,0,0-4.3.4,15.57,15.57,0,0,0-4.1,1.5,49.89,49.89,0,0,0-7.4,4.9,76.12,76.12,0,0,1-7.5,5.1,48.65,48.65,0,0,1-8.4,3.7,54.79,54.79,0,0,1-8.9,2.1A19.67,19.67,0,0,1,109.1,95.6Z" transform="translate(-21.32 -6.23)"/>
    </g>
    <g>
      <path class="cls-1" d="M115.3,104.8c4.5,0,10.1,5.7,13.5,7.9,3.4,3.4-30.9,73.7-35.4,73.7s-15.7-2.3-18.5-5.7l3.4,1.7C82.1,183.1,117.5,110,115.3,104.8Z" transform="translate(-21.32 -6.23)"/>
      <path class="cls-1" d="M115.1,104.3a4.33,4.33,0,0,1,.5-.1h.9a4.51,4.51,0,0,1,1.1.3,16.67,16.67,0,0,1,2,.8,40.5,40.5,0,0,1,3.5,2.1c1.1.8,2.1,1.6,3.2,2.4s2.1,1.7,3.1,2.4l.1.1h0a3.07,3.07,0,0,1,.4,1.2v.9c-.1.6-.2,1.1-.3,1.6-.3,1.1-.6,2.1-.9,3.1-.7,2-1.4,4-2.2,6-1.6,4-3.3,7.9-5,11.8q-5.25,11.7-11.1,23.1c-1.9,3.8-3.9,7.6-6,11.3s-4.2,7.5-6.5,11a24.76,24.76,0,0,1-1.9,2.6c-.4.4-.7.8-1.1,1.2a1.58,1.58,0,0,1-.8.5,1.86,1.86,0,0,1-1,.1,34,34,0,0,1-6.4-.9,43.69,43.69,0,0,1-6.2-1.7c-2-.8-4.1-1.6-5.6-3.3l-1.2-1.3,1.6.8,3.4,1.7h-.1l.4-.2c.2-.1.3-.3.5-.4a7,7,0,0,0,.8-1c.5-.7,1-1.5,1.5-2.2,1-1.5,1.9-3.1,2.8-4.6,1.8-3.1,3.5-6.3,5.2-9.5,3.4-6.4,6.6-12.8,9.8-19.4s6.2-13.1,9.1-19.7c1.4-3.3,2.8-6.6,4.1-10,.6-1.7,1.3-3.4,1.8-5.1a25,25,0,0,0,.7-2.6c.1-.4.2-.9.3-1.3a5.65,5.65,0,0,0,0-1.3Zm-.1-.1.3.7a2.88,2.88,0,0,1,.1,1.3c-.1.4-.1.9-.2,1.3-.2.9-.5,1.8-.7,2.6a51.73,51.73,0,0,1-1.8,5.1c-1.3,3.4-2.7,6.7-4.1,10.1-2.8,6.7-5.8,13.2-8.9,19.8s-6.3,13-9.6,19.4c-1.7,3.2-3.4,6.4-5.2,9.5-.9,1.6-1.8,3.1-2.8,4.7-.5.8-1,1.5-1.5,2.3-.3.4-.6.7-.9,1.1l-.5.5c-.1.1-.2.2-.3.2a.75.75,0,0,1-.5.1h-.1l-3.4-1.7.4-.5a13,13,0,0,0,5.4,3,42.07,42.07,0,0,0,6.1,1.6,45.23,45.23,0,0,0,6.3.8h.6a1,1,0,0,0,.5-.4,5.24,5.24,0,0,0,1-1.1c.6-.8,1.2-1.7,1.8-2.6,2.3-3.6,4.4-7.3,6.4-11s4-7.5,5.9-11.3c3.8-7.6,7.5-15.3,10.9-23.1,1.7-3.9,3.4-7.8,4.9-11.8.8-2,1.5-4,2.2-6l.9-3,.3-1.5v-.7c0-.2-.1-.4,0-.3l.1.1c-1.1-.8-2.2-1.6-3.2-2.4s-2.1-1.6-3.1-2.4-2.2-1.4-3.3-2a12.2,12.2,0,0,0-1.7-.7c-.3-.1-.6-.1-.9-.2s-.1,0-.1-.1a.37.37,0,0,0-.1-.3Z" transform="translate(-21.32 -6.23)"/>
    </g>
    <g>
      <path class="cls-1" d="M66.4,167.2c1.7,7.9-10.7,2.3-15.7-5.7-4.5-6.8-13.5-24.4-5.6-35.7,10.7-15.9,30.3-4.5,33.2-1.7v-8.5c-5.6-7.9-10.1-10.2-15.2-43.7C58.6,30.5,73.2,24.3,87.3,28.2,109.8,35,117.6,69,117.6,70.7s1.7,22.7,5.6-1.7c4.5-23.3-10.7-49.4-35.4-57.9C75.4,6.7,40-1.8,27.6,29.4c-14.6,35.7,20.8,72.6,18,76C42.2,107.7,17.5,116.7,22,144s30.9,39.1,43.3,41.4,8.4-18.2,8.4-21L60.2,149.7C60.8,149.1,64.1,154.8,66.4,167.2Z" transform="translate(-21.32 -6.23)"/>
      <path class="cls-1" d="M66.9,170.3c-.1.1-.1.3-.2.4a3.16,3.16,0,0,1-1.7,1.1,5.44,5.44,0,0,1-1.8,0,17.24,17.24,0,0,1-5.9-2.5,23.66,23.66,0,0,1-4.8-4.1,24.33,24.33,0,0,1-2-2.5c-.6-.9-1.1-1.7-1.7-2.6a63.82,63.82,0,0,1-5.3-11.2,36.16,36.16,0,0,1-2.3-12.2,21.63,21.63,0,0,1,.9-6.2,16.61,16.61,0,0,1,2.9-5.6,18.81,18.81,0,0,1,4.4-4.5,15.73,15.73,0,0,1,5.7-2.7,23.68,23.68,0,0,1,12.4.4,31.83,31.83,0,0,1,5.8,2.3,22.79,22.79,0,0,1,5.3,3.4l-1.1.5v-8.5l.1.4c-1.2-1.7-2.6-3.4-3.8-5.2a35.69,35.69,0,0,1-3.3-5.6,67.7,67.7,0,0,1-4.2-12.2c-1-4.2-1.9-8.4-2.6-12.6s-1.5-8.5-1.8-12.8a111.12,111.12,0,0,1-.3-12.9,55.65,55.65,0,0,1,1.8-12.8,22.73,22.73,0,0,1,6.3-11.3,14.4,14.4,0,0,1,5.8-3.2A18,18,0,0,1,82,27a28.2,28.2,0,0,1,12.3,4.2,28.79,28.79,0,0,1,5.2,4,48.13,48.13,0,0,1,4.4,4.7,50.85,50.85,0,0,1,3.8,5.3,62.15,62.15,0,0,1,3.2,5.6,72.64,72.64,0,0,1,4.9,11.9,63.21,63.21,0,0,1,1.8,6.2c.1.5.2,1.1.3,1.6a1.09,1.09,0,0,0,.1.5v1.2c.1,1.1.2,2.1.3,3.2a28.68,28.68,0,0,0,.5,3.1c.1.5.3,1,.4,1.5l.3.6.1.1h0a3.48,3.48,0,0,0,.7-1.1,8.8,8.8,0,0,0,.5-1.5c.3-1,.5-2,.8-3.1.4-2.1.8-4.2,1.1-6.3l.4-3.1c.2-1,.1-2.1.2-3.2l.1-1.6c0-.5-.1-1.1-.1-1.6-.1-1.1-.1-2.1-.2-3.2-.3-2.1-.6-4.2-1.1-6.3a43.1,43.1,0,0,0-1.9-6.1c-.4-1-.8-1.9-1.2-2.9l-.6-1.5c-.2-.5-.5-.9-.7-1.4L116.1,35l-1.8-2.7c-.3-.4-.6-.9-.9-1.3l-1-1.3c-.7-.8-1.3-1.7-2-2.5a47.78,47.78,0,0,0-4.5-4.5,24.05,24.05,0,0,0-2.4-2.1L101,18.7a52.85,52.85,0,0,0-11.2-6.1A82.33,82.33,0,0,0,77.6,8.8,66,66,0,0,0,65,7c-2.1,0-4.2,0-6.4.2l-3.2.3c-1,.2-2.1.3-3.1.6A35,35,0,0,0,40.7,13a33.15,33.15,0,0,0-8.9,9,44.46,44.46,0,0,0-5.3,11.5,52.79,52.79,0,0,0-1.1,25.3,93,93,0,0,0,8.6,24c1.9,3.8,4.1,7.5,6.2,11.2l3.3,5.5c.5.9,1.1,1.9,1.5,2.8a9.38,9.38,0,0,1,.6,1.5,2.35,2.35,0,0,1,.2.8,1.49,1.49,0,0,1-.2.9h0c-1.3.8-2.6,1.4-3.8,2.1s-2.5,1.4-3.7,2.2a44.24,44.24,0,0,0-6.8,5.3,34.5,34.5,0,0,0-5.4,6.7,29.39,29.39,0,0,0-3.3,8,37,37,0,0,0,.2,17.2,44.71,44.71,0,0,0,7.1,15.7c6.7,9.5,16.8,16.3,27.6,20.3a47.35,47.35,0,0,0,8.4,2.3,6.8,6.8,0,0,0,4.2-.6,5.52,5.52,0,0,0,1.7-1.4,17.39,17.39,0,0,0,1.1-1.8,14.44,14.44,0,0,0,1.1-4.2,31.08,31.08,0,0,0,.3-4.3c0-2.9-.4-5.8-.6-8.7h0L60.2,149.5h0c.1-.1.2,0,.3,0s.2.1.2.2a2.18,2.18,0,0,1,.4.5c.2.3.4.7.6,1a14.72,14.72,0,0,1,1,2.2c.6,1.5,1.1,3,1.6,4.5.9,3,1.6,6.1,2.2,9.2Zm-.5-3.1c-.6-3.1-1.3-6.2-2.2-9.2-.5-1.5-1-3-1.6-4.5a21.4,21.4,0,0,0-1-2.2c-.2-.3-.4-.7-.6-1a1.76,1.76,0,0,0-.4-.5c-.1-.1-.3-.3-.5-.2h0l13.5,14.7h0c.2,2.9.6,5.8.6,8.7,0,1.5-.1,2.9-.2,4.4a15.32,15.32,0,0,1-1.1,4.2,11.78,11.78,0,0,1-1.1,1.9,7.94,7.94,0,0,1-1.7,1.4,7,7,0,0,1-4.3.6,40.15,40.15,0,0,1-8.4-2.3A62.93,62.93,0,0,1,42,175.1a52.77,52.77,0,0,1-12.3-12.2,43.65,43.65,0,0,1-7.2-15.8,37.47,37.47,0,0,1-.3-17.3,30,30,0,0,1,3.3-8.1,32.8,32.8,0,0,1,5.5-6.8,45.68,45.68,0,0,1,6.9-5.4c1.2-.8,2.5-1.5,3.8-2.2s2.6-1.3,3.8-2.1h0a1.76,1.76,0,0,0-.1-1.4c-.2-.5-.4-1-.6-1.4-.5-1-1-1.9-1.5-2.8L40,94.1c-2.2-3.7-4.3-7.4-6.3-11.2A90.33,90.33,0,0,1,25,58.8a53.66,53.66,0,0,1,1-25.5,46,46,0,0,1,5.4-11.7,35.79,35.79,0,0,1,9-9.2,34.68,34.68,0,0,1,11.9-5,30.28,30.28,0,0,1,3.2-.6c1.1-.1,2.1-.3,3.2-.4a45.58,45.58,0,0,1,6.4-.1A69,69,0,0,1,77.9,7.9a67.25,67.25,0,0,1,12.3,3.8,53.59,53.59,0,0,1,11.3,6.1l2.6,1.9a24.05,24.05,0,0,1,2.4,2.1,39,39,0,0,1,4.5,4.6c.7.8,1.3,1.7,2,2.5l1,1.3c.3.4.6.9.9,1.3l1.8,2.7,1.6,2.8c.3.5.5.9.8,1.4l.7,1.5c.4,1,.9,2,1.3,3a44.4,44.4,0,0,1,1.9,6.2c.6,2.1.8,4.2,1.2,6.4.1,1.1.1,2.2.2,3.2,0,.5.1,1.1.1,1.6l-.1,1.6c-.1,1.1,0,2.2-.2,3.2l-.4,3.2c-.3,2.1-.7,4.2-1.1,6.3a28.06,28.06,0,0,1-.8,3.1c-.2.5-.3,1-.5,1.6a3.29,3.29,0,0,1-1,1.5,1.06,1.06,0,0,1-.8.1,2.18,2.18,0,0,1-.5-.4,3,3,0,0,1-.4-.8,9.83,9.83,0,0,1-.5-1.6c-.2-1.1-.4-2.1-.5-3.2s-.2-2.1-.3-3.2l-.1-.8v-.7l-.3-1.5a61.29,61.29,0,0,0-1.8-6.1,72.91,72.91,0,0,0-11.8-22.4,46.81,46.81,0,0,0-4.3-4.6,31.35,31.35,0,0,0-5-3.8,24.82,24.82,0,0,0-11.8-4,16.2,16.2,0,0,0-6.2.6,14.4,14.4,0,0,0-5.4,3c-3.1,2.8-4.9,6.8-6,10.8A58.83,58.83,0,0,0,63,54.8a91.74,91.74,0,0,0,.4,12.8c.3,4.2,1.1,8.4,1.8,12.6s1.6,8.4,2.6,12.5a62.93,62.93,0,0,0,4.1,12,36.54,36.54,0,0,0,3.2,5.4c1.2,1.7,2.6,3.4,3.8,5.2l.1.2v10.2l-1.1-1a21.36,21.36,0,0,0-5-3.2,38.27,38.27,0,0,0-5.6-2.2,21.19,21.19,0,0,0-11.7-.4,17.18,17.18,0,0,0-9.4,6.7,17.42,17.42,0,0,0-3.4,11.1,33.82,33.82,0,0,0,2.3,11.7,54.53,54.53,0,0,0,5.2,10.9c.5.9,1.1,1.7,1.6,2.5a21.1,21.1,0,0,0,1.9,2.3,23.26,23.26,0,0,0,4.5,3.8,13.83,13.83,0,0,0,5.3,2.3c.9.1,1.8,0,2.1-.5a3.15,3.15,0,0,0,.2-2.4Z" transform="translate(-21.32 -6.23)"/>
    </g>
  </g>
</svg>
