<svg id="Layer_1" data-name="Layer 1" xmlns="http://www.w3.org/2000/svg" viewBox="0 0 408.36 88.78"><title>shrug</title><path d="M27.7,77.56C60.64,67,76,56.48,82.54,8.26L93.68,11.6c-1.33,5.68-2.64,10.56-3.6,15.51-5.47,28.22-21.66,47.11-48.6,57.24-5.07,1.9-8,1.39-10.71-3A41.23,41.23,0,0,0,27.7,77.56Z" transform="translate(153.12 -5.87)"/><path d="M-6.18,6.37C-23.66,35.83-23.64,64.82-6.22,94c-4.53,1.35-7.63.18-10.1-4.18-14.86-26.28-14.76-52.49,0-78.69C-13.23,5.66-13,5.77-6.18,6.37Z" transform="translate(153.12 -5.87)"/><path d="M107.8,6.43c5-1.39,8,.49,10.34,4.7q22.19,40.1-.86,79.6C115,94.64,112,95,108,94,125.15,64.77,125.48,35.74,107.8,6.43Z" transform="translate(153.12 -5.87)"/><path d="M-124.68,7.48c5.26-1.37,7.58.21,9.3,5,8.17,22.64,16.81,45.11,25.27,67.65.63,1.68,1.17,3.4,1.79,5.23-5,1.51-7.51.11-9.32-4.89C-106,57.17-114.9,34.07-123.58,10.9-124,9.84-124.28,8.73-124.68,7.48Z" transform="translate(153.12 -5.87)"/><path d="M227.37,7.23l-23.89,61.9c-1.49,3.87-3.32,7.65-4.41,11.63-1.36,5-4.22,6.12-9.16,4.42l30-78Z" transform="translate(153.12 -5.87)"/><path d="M-34,89.71l-.25,4.93H-88V89.71Z" transform="translate(153.12 -5.87)"/><path d="M135.76,94.62l.28-5h53.6l.38,5Z" transform="translate(153.12 -5.87)"/><path d="M20.27,11.73,32.9,36.27l-9.71,5.22L10.9,17Z" transform="translate(153.12 -5.87)"/><path d="M49.48,33.42,37.21,10.54,47,5.87l12.23,22.4Z" transform="translate(153.12 -5.87)"/><path d="M-129.26,12v5.64h-23.86V12Z" transform="translate(153.12 -5.87)"/><path d="M231.26,17.68V12.19h24v5.49Z" transform="translate(153.12 -5.87)"/></svg>